<?xml version="1.0" encoding="iso-8859-1"?>
<!-- Uploaded to: SVG Repo, www.svgrepo.com, Generator: SVG Repo Mixer Tools -->
<svg fill="#000000" height="800px" width="800px" version="1.1" id="Layer_1" xmlns="http://www.w3.org/2000/svg" xmlns:xlink="http://www.w3.org/1999/xlink" 
	 viewBox="0 0 512 512" xml:space="preserve">
<g>
	<g>
		<path d="M421.863,21.067c-9.787-8.33-24.474-7.152-32.807,2.636c-8.332,9.787-7.151,24.474,2.634,32.807
			c46.879,39.907,73.764,98.067,73.764,159.567c0,12.853,10.42,23.273,23.273,23.273c12.853,0,23.273-10.42,23.273-23.273
			C512,140.909,479.147,69.832,421.863,21.067z"/>
	</g>
</g>
<g>
	<g>
		<path d="M122.944,23.704c-8.335-9.789-23.024-10.966-32.808-2.633C32.853,69.837,0,140.912,0,216.077
			c0,12.853,10.42,23.273,23.273,23.273c12.853,0,23.273-10.42,23.273-23.273c0-61.497,26.886-119.657,73.764-159.564
			C130.096,48.179,131.275,33.491,122.944,23.704z"/>
	</g>
</g>
<g>
	<g>
		<path d="M393.05,293.063V190.219c0-67.64-49.254-123.982-113.777-135.067V38.791c0-12.854-10.42-23.273-23.273-23.273
			c-12.853,0-23.273,10.418-23.273,23.273v16.361c-64.524,11.084-113.779,67.427-113.779,135.067v102.844
			c-32.886,9.995-56.888,40.608-56.888,76.716c0,12.001,2.67,23.384,7.416,33.618h373.046c4.748-10.234,7.416-21.617,7.416-33.618
			C449.939,333.671,425.937,303.058,393.05,293.063z"/>
	</g>
</g>
<g>
	<g>
		<path d="M190.185,449.943c9.607,27.085,35.475,46.542,65.815,46.542s56.207-19.458,65.815-46.542H190.185z"/>
	</g>
</g>
</svg>